<svg width="128" height="128" viewBox="0 0 128 128" fill="none" xmlns="http://www.w3.org/2000/svg">
<path fill-rule="evenodd" clip-rule="evenodd" d="M87.8702 24.1589C87.8702 24.1589 85.2084 17.5043 87.8702 16.1733C90.5321 14.8424 98.5176 21.4653 102.51 25.4898C106.503 29.5143 113.158 37.4682 111.827 40.13C110.496 42.7919 103.841 40.13 103.841 40.13L77.2228 74.7341C77.2228 74.7341 82.5465 90.7052 74.561 90.7052C66.5754 90.7052 37.295 61.4248 37.295 53.4393C37.295 45.4537 53.2662 50.7774 53.2662 50.7774L87.8702 24.1589Z" fill="white"/>
<path d="M16.0002 112L17.3311 106.676L51.9352 72.0722L55.928 76.065L21.3239 110.669L16.0002 112Z" fill="white"/>
</svg>
