<svg width="128" height="128" viewBox="0 0 128 128" fill="none" xmlns="http://www.w3.org/2000/svg">
<path fill-rule="evenodd" clip-rule="evenodd" d="M54.0174 59.7261C54.0174 59.7261 92.0349 21.7086 96.787 16.9564C101.539 12.2043 115.796 26.4608 111.044 31.213C106.291 35.9651 68.274 73.9826 68.274 73.9826L49.2653 78.7348L54.0174 59.7261Z" fill="white"/>
<path d="M92.0348 64.4782V102.496H25.5044V35.9652H63.5218V26.4608H25.5044C20.1053 26.4608 16 30.5661 16 35.9652V102.496C16 107.895 20.1053 112 25.5044 112H92.0348C97.4339 112 101.539 107.895 101.539 102.496V64.4782H92.0348Z" fill="white"/>
<circle cx="96.787" cy="64.4782" r="4.75218" fill="white"/>
<circle cx="63.5218" cy="31.213" r="4.75218" fill="white"/>
</svg>
