<?xml version="1.0" encoding="UTF-8"?>
<svg version="1.1" xmlns="http://www.w3.org/2000/svg" width="256" height="128">
<path d="M0 0 C1.39466391 -0.00571988 2.78932315 -0.0126903 4.18397522 -0.02079773 C7.93216298 -0.0385685 11.68011458 -0.03759118 15.42833161 -0.03185534 C18.57640336 -0.02873918 21.72443132 -0.03488283 24.87249678 -0.04089409 C32.30989255 -0.05488569 39.74717333 -0.05342373 47.18457031 -0.04199219 C54.81396408 -0.03052342 62.44300579 -0.04457791 70.07235318 -0.07138866 C76.66222002 -0.09366491 83.25197732 -0.10015619 89.84187907 -0.09431225 C93.76026551 -0.09096892 97.67842661 -0.09317993 101.59678078 -0.11056328 C126.3486088 -0.2098589 147.41116302 0.596261 166.55932617 18.40405273 C178.87702049 31.21266966 185.11582231 47.56006117 184.98144531 65.24023438 C184.33937736 82.82026533 176.99131841 98.37189296 164.31713867 110.56030273 C149.81267589 122.92476281 133.81759177 126.874145 115.11865234 126.80810547 C113.72398844 126.81382534 112.3293292 126.82079577 110.93467712 126.8289032 C107.18648937 126.84667397 103.43853776 126.84569665 99.69032073 126.83996081 C96.54224898 126.83684465 93.39422103 126.8429883 90.24615556 126.84899956 C82.80875979 126.86299116 75.37147902 126.8615292 67.93408203 126.85009766 C60.30468826 126.83862889 52.67564655 126.85268338 45.04629916 126.87949413 C38.45643232 126.90177038 31.86667502 126.90826166 25.27677327 126.90241772 C21.35838683 126.89907439 17.44022573 126.9012854 13.52187157 126.91866875 C-11.22995646 127.01796436 -32.29251068 126.21184447 -51.44067383 108.40405273 C-63.75836815 95.59543581 -69.99716996 79.2480443 -69.86279297 61.56787109 C-69.22072502 43.98784013 -61.87266606 28.43621251 -49.19848633 16.24780273 C-34.69402355 3.88334266 -18.69893942 -0.06603954 0 0 Z " fill="#CBDBFC" transform="translate(70.440673828125,0.595947265625)"/>
<path d="M0 0 C10.49971267 8.8770298 18.58350973 22.09297429 20.203125 35.9296875 C21.26719974 53.62693051 17.64952435 68.47023665 5.953125 82.3046875 C-4.44493703 93.19789534 -18.52241744 99.74689214 -33.52392578 100.21557617 C-50.21987565 100.42862447 -64.4015087 95.00594624 -76.578125 83.3828125 C-87.86277544 70.90612152 -92.48145049 56.46216292 -92.0390625 39.921875 C-91.11801773 24.73949191 -84.06344165 11.11983059 -72.796875 0.9296875 C-50.3752032 -15.91896761 -22.88624326 -16.94093425 0 0 Z " fill="#FFFFFF" transform="translate(99.796875,20.0703125)"/>
<path d="M0 0 C1.39466391 -0.00571988 2.78932315 -0.0126903 4.18397522 -0.02079773 C7.93216298 -0.0385685 11.68011458 -0.03759118 15.42833161 -0.03185534 C18.57640336 -0.02873918 21.72443132 -0.03488283 24.87249678 -0.04089409 C32.30989255 -0.05488569 39.74717333 -0.05342373 47.18457031 -0.04199219 C54.81396408 -0.03052342 62.44300579 -0.04457791 70.07235318 -0.07138866 C76.66222002 -0.09366491 83.25197732 -0.10015619 89.84187907 -0.09431225 C93.76026551 -0.09096892 97.67842661 -0.09317993 101.59678078 -0.11056328 C126.3486088 -0.2098589 147.41116302 0.596261 166.55932617 18.40405273 C178.87702049 31.21266966 185.11582231 47.56006117 184.98144531 65.24023438 C184.33937736 82.82026533 176.99131841 98.37189296 164.31713867 110.56030273 C149.81267589 122.92476281 133.81759177 126.874145 115.11865234 126.80810547 C113.72398844 126.81382534 112.3293292 126.82079577 110.93467712 126.8289032 C107.18648937 126.84667397 103.43853776 126.84569665 99.69032073 126.83996081 C96.54224898 126.83684465 93.39422103 126.8429883 90.24615556 126.84899956 C82.80875979 126.86299116 75.37147902 126.8615292 67.93408203 126.85009766 C60.30468826 126.83862889 52.67564655 126.85268338 45.04629916 126.87949413 C38.45643232 126.90177038 31.86667502 126.90826166 25.27677327 126.90241772 C21.35838683 126.89907439 17.44022573 126.9012854 13.52187157 126.91866875 C-11.22995646 127.01796436 -32.29251068 126.21184447 -51.44067383 108.40405273 C-63.75836815 95.59543581 -69.99716996 79.2480443 -69.86279297 61.56787109 C-69.22072502 43.98784013 -61.87266606 28.43621251 -49.19848633 16.24780273 C-34.69402355 3.88334266 -18.69893942 -0.06603954 0 0 Z M-52.88989258 23.19702148 C-63.73784182 37.05729382 -69.11257931 52.70815422 -67.44067383 70.40405273 C-64.83947396 87.22761078 -57.13928557 101.64187925 -43.62817383 112.21655273 C-29.94650729 121.93773685 -15.78039853 124.86759366 0.81640625 124.80810547 C2.19136605 124.81382569 3.56632112 124.82079624 4.94126892 124.8289032 C8.63574041 124.84667027 12.32997226 124.84569737 16.02447343 124.83996081 C19.1278095 124.83684408 22.23110117 124.84298891 25.33443087 124.84899956 C32.66635176 124.86298996 39.998156 124.86153023 47.33007812 124.85009766 C54.85041067 124.83862915 62.37038605 124.85268321 69.89067155 124.87949413 C76.38712126 124.90177292 82.88345985 124.90826109 89.37994498 124.90241772 C93.24244132 124.89907497 97.10470905 124.90128139 100.96717262 124.91866875 C125.3156272 125.01778165 146.91675683 124.3238084 165.55932617 106.40405273 C177.20886619 93.11948956 183.36233564 77.8623136 182.90698242 60.08374023 C181.32853329 43.37700893 174.52805196 28.14585842 161.76635742 16.95483398 C147.32251262 5.65014303 132.45851133 1.93492222 114.30224609 2 C112.92728629 1.99427978 111.55233122 1.98730923 110.17738342 1.97920227 C106.48291194 1.9614352 102.78868008 1.9624081 99.09417892 1.96814466 C95.99084284 1.97126138 92.88755117 1.96511656 89.78422147 1.95910591 C82.45230058 1.94511551 75.12049634 1.94657524 67.78857422 1.95800781 C60.26824167 1.96947632 52.7482663 1.95542226 45.22798079 1.92861134 C38.73153109 1.90633255 32.23519249 1.89984437 25.73870736 1.90568775 C21.87621103 1.9090305 18.0139433 1.90682408 14.15147972 1.88943672 C-11.20467902 1.78622185 -34.8558499 2.63188509 -52.88989258 23.19702148 Z " fill="#5B7599" transform="translate(70.440673828125,0.595947265625)"/>
</svg>
