<svg xmlns="http://www.w3.org/2000/svg" viewBox="0 -0.5 32 32" shape-rendering="crispEdges">
<metadata>Made with Pixels to Svg https://codepen.io/shshaw/pen/XbxvNj</metadata>
<path stroke="#9badb7" d="M3 0h6M15 0h6M2 1h1M9 1h1M14 1h1M21 1h1M2 2h1M10 2h1M14 2h1M22 2h1M3 3h1M11 3h1M15 3h1M23 3h1M4 4h1M12 4h1M16 4h1M24 4h1M5 5h1M13 5h1M17 5h1M25 5h1M6 6h1M14 6h1M18 6h1M26 6h1M7 7h1M15 7h1M19 7h1M27 7h1M8 8h1M16 8h1M20 8h1M28 8h1M9 9h1M17 9h1M21 9h1M29 9h1M8 10h1M16 10h1M20 10h1M28 10h1M7 11h1M15 11h1M19 11h1M27 11h1M6 12h1M14 12h1M18 12h1M26 12h1M5 13h1M13 13h1M17 13h1M25 13h1M4 14h1M12 14h1M16 14h1M24 14h1M3 15h1M11 15h1M15 15h1M23 15h1M2 16h1M10 16h1M14 16h1M22 16h1M2 17h1M9 17h1M14 17h1M21 17h1M3 18h6M15 18h6M2 20h4M9 20h2M13 20h2M17 20h6M25 20h5M1 21h1M6 21h1M8 21h1M11 21h2M15 21h2M23 21h2M30 21h1M0 22h1M7 22h2M11 22h2M15 22h2M23 22h2M31 22h1M0 23h1M4 23h3M8 23h1M11 23h1M14 23h1M17 23h2M21 23h2M24 23h1M27 23h2M31 23h1M1 24h1M5 24h1M8 24h1M11 24h1M14 24h1M18 24h1M21 24h1M24 24h1M27 24h2M31 24h1M2 25h1M6 25h1M8 25h1M13 25h1M18 25h1M21 25h1M24 25h1M31 25h1M3 26h1M7 26h2M13 26h1M18 26h1M21 26h1M24 26h1M30 26h1M1 27h2M4 27h1M7 27h2M11 27h1M14 27h1M18 27h1M21 27h1M24 27h1M27 27h3M0 28h1M3 28h2M7 28h2M11 28h1M14 28h1M17 28h2M21 28h2M24 28h1M27 28h1M0 29h1M7 29h2M11 29h2M15 29h2M23 29h2M27 29h1M1 30h1M6 30h1M8 30h1M11 30h2M15 30h2M23 30h2M27 30h1M2 31h4M9 31h2M13 31h2M17 31h6M25 31h2" />
<path stroke="#ffffff" d="M3 1h6M15 1h6M3 2h7M15 2h7M4 3h7M16 3h7M5 4h7M17 4h7M6 5h7M18 5h7M7 6h7M19 6h7M8 7h7M20 7h7M9 8h7M21 8h7M10 9h7M22 9h7M9 10h7M21 10h7M8 11h7M20 11h7M7 12h7M19 12h7M6 13h7M18 13h7M5 14h7M17 14h7M4 15h7M16 15h7M3 16h7M15 16h7M3 17h6M15 17h6M2 21h4M9 21h2M13 21h2M17 21h6M25 21h5M1 22h6M9 22h2M13 22h2M17 22h6M25 22h6M1 23h3M9 23h2M12 23h2M19 23h2M25 23h2M29 23h2M2 24h3M9 24h2M12 24h2M19 24h2M25 24h2M29 24h2M3 25h3M9 25h4M19 25h2M25 25h6M4 26h3M9 26h4M19 26h2M25 26h5M5 27h2M9 27h2M12 27h2M19 27h2M25 27h2M1 28h2M5 28h2M9 28h2M12 28h2M19 28h2M25 28h2M1 29h6M9 29h2M13 29h2M17 29h6M25 29h2M2 30h4M9 30h2M13 30h2M17 30h6M25 30h2" />
</svg>