<svg xmlns="http://www.w3.org/2000/svg" viewBox="0 -0.5 32 32" shape-rendering="crispEdges">
<metadata>Made with Pixels to Svg https://codepen.io/shshaw/pen/XbxvNj</metadata>
<path stroke="#4b4b4b" d="M14 1h4M13 2h1M18 2h1M13 3h1M18 3h1M6 4h2M13 4h1M18 4h1M24 4h2M5 5h1M8 5h1M12 5h1M19 5h1M23 5h1M26 5h1M4 6h1M9 6h3M20 6h3M27 6h1M4 7h1M27 7h1M5 8h1M26 8h1M6 9h1M13 9h6M25 9h1M6 10h1M12 10h1M19 10h1M25 10h1M6 11h1M11 11h1M14 11h4M20 11h1M25 11h1M5 12h1M10 12h1M13 12h1M18 12h1M21 12h1M26 12h1M2 13h3M9 13h1M12 13h1M19 13h1M22 13h1M27 13h3M1 14h1M9 14h1M11 14h1M20 14h1M22 14h1M30 14h1M1 15h1M9 15h1M11 15h1M20 15h1M22 15h1M30 15h1M1 16h1M9 16h1M11 16h1M20 16h1M22 16h1M30 16h1M1 17h1M9 17h1M11 17h1M20 17h1M22 17h1M30 17h1M2 18h3M9 18h1M12 18h1M19 18h1M22 18h1M27 18h3M5 19h1M10 19h1M13 19h1M18 19h1M21 19h1M26 19h1M6 20h1M11 20h1M14 20h4M20 20h1M25 20h1M6 21h1M12 21h1M19 21h1M25 21h1M6 22h1M13 22h6M25 22h1M5 23h1M26 23h1M4 24h1M27 24h1M4 25h1M9 25h3M20 25h3M27 25h1M5 26h1M8 26h1M12 26h1M19 26h1M23 26h1M26 26h1M6 27h2M13 27h1M18 27h1M24 27h2M13 28h1M18 28h1M13 29h1M18 29h1M14 30h4" />
<path stroke="#b7b7b7" d="M14 2h4M14 3h4M14 4h4M6 5h2M13 5h6M24 5h2M5 6h4M12 6h8M23 6h4M5 7h22M6 8h20M7 9h6M19 9h6M7 10h5M20 10h5M7 11h4M21 11h4M6 12h4M22 12h4M5 13h4M23 13h4M2 14h7M23 14h7M2 15h7M23 15h7M2 16h7M23 16h7M2 17h7M23 17h7M5 18h4M23 18h4M6 19h4M22 19h4M7 20h4M21 20h4M7 21h5M20 21h5M7 22h6M19 22h6M6 23h20M5 24h22M5 25h4M12 25h8M23 25h4M6 26h2M13 26h6M24 26h2M14 27h4M14 28h4M14 29h4" />
<path stroke="#717171" d="M13 10h6M12 11h2M18 11h2M11 12h2M19 12h2M10 13h2M20 13h2M10 14h1M21 14h1M10 15h1M21 15h1M10 16h1M21 16h1M10 17h1M21 17h1M10 18h2M20 18h2M11 19h2M19 19h2M12 20h2M18 20h2M13 21h6" />
</svg>