<svg width="60" height="60" viewBox="0 0 60 60" fill="none" xmlns="http://www.w3.org/2000/svg">
<g clip-path="url(#clip0_133_620)">
<mask id="mask0_133_620" style="mask-type:alpha" maskUnits="userSpaceOnUse" x="5" y="7" width="50" height="50">
<path fill-rule="evenodd" clip-rule="evenodd" d="M30 57C43.8071 57 55 45.8071 55 32C55 18.1929 43.8071 7 30 7C16.1929 7 5 18.1929 5 32C5 45.8071 16.1929 57 30 57ZM30 42C35.5228 42 40 37.5228 40 32C40 26.4772 35.5228 22 30 22C24.4772 22 20 26.4772 20 32C20 37.5228 24.4772 42 30 42Z" fill="#D9D9D9"/>
</mask>
<g mask="url(#mask0_133_620)">
<path d="M29.9999 31.9997L23.5294 7.85157C27.7684 6.71594 32.2316 6.71615 36.4705 7.85218L29.9999 31.9997Z" fill="#FF0000"/>
<path d="M29.9999 31.9997L36.4705 7.85218C40.7091 8.98799 44.574 11.2194 47.6769 14.3222L29.9999 31.9997Z" fill="#FF4D00"/>
<path d="M29.9999 31.9997L47.6769 14.3222C50.7802 17.4252 53.0119 21.2904 54.1479 25.5293L29.9999 31.9997Z" fill="#FF9900"/>
<path d="M29.9999 31.9997L54.1479 25.5293C55.2835 29.7683 55.2833 34.2315 54.1473 38.4704L29.9999 31.9997Z" fill="#FFE600"/>
<path d="M29.9999 31.9997L54.1473 38.4704C53.0115 42.7089 50.7802 46.5739 47.6774 49.6768L29.9999 31.9997Z" fill="#FFFF00"/>
<path d="M29.9999 31.9997L47.6774 49.6768C44.5744 52.7801 40.7092 55.0119 36.4703 56.1479L29.9999 31.9997Z" fill="#80FF00"/>
<path d="M29.9999 31.9997L36.4703 56.1479C32.2314 57.2835 27.7681 57.2833 23.5292 56.1473L29.9999 31.9997Z" fill="#00FF00"/>
<path d="M29.9999 31.9997L23.5292 56.1473C19.2906 55.0115 15.4258 52.78 12.3229 49.6772L29.9999 31.9997Z" fill="#00FFFF"/>
<path d="M29.9999 31.9997L12.3229 49.6772C9.21958 46.5743 6.98757 42.7091 5.85157 38.4702L29.9999 31.9997Z" fill="#0066FF"/>
<path d="M29.9999 31.9997L5.85157 38.4702C4.71593 34.2312 4.71615 29.768 5.85219 25.5291L29.9999 31.9997Z" fill="#3300FF"/>
<path d="M29.9999 31.9997L5.85219 25.5291C6.98799 21.2905 9.21953 17.4256 12.3223 14.3227L29.9999 31.9997Z" fill="#7F00FF"/>
<path d="M29.9999 31.9997L12.3223 14.3227C15.4253 11.2194 19.2905 8.98758 23.5294 7.85157L29.9999 31.9997Z" fill="#CC00FF"/>
</g>
<path d="M46.9999 49L51.9999 54" stroke="white" stroke-width="6" stroke-linecap="round"/>
<path d="M13 49L8 54" stroke="white" stroke-width="6" stroke-linecap="round"/>
<path fill-rule="evenodd" clip-rule="evenodd" d="M54.9999 32C54.9999 45.8071 43.8071 57 29.9999 57C16.1928 57 4.99994 45.8071 4.99994 32C4.99994 18.1929 16.1928 7.00002 29.9999 7.00002C43.8071 7.00002 54.9999 18.1929 54.9999 32ZM49.9999 32C49.9999 43.0457 41.0456 52 29.9999 52C18.9542 52 9.99994 43.0457 9.99994 32C9.99994 20.9543 18.9542 12 29.9999 12C41.0456 12 49.9999 20.9543 49.9999 32Z" fill="white"/>
<path fill-rule="evenodd" clip-rule="evenodd" d="M54.7467 21.1848C57.3191 19.3754 59 16.384 59 13C59 7.47714 54.5228 2.99998 49 2.99998C45.616 2.99998 42.6246 4.68086 40.8151 7.25324C47.0316 9.9739 52.0261 14.9683 54.7467 21.1848Z" fill="white"/>
<path fill-rule="evenodd" clip-rule="evenodd" d="M5.25327 21.1849C2.68088 19.3754 1 16.384 1 13C1 7.47715 5.47715 3 11 3C14.384 3 17.3754 4.68088 19.1849 7.25328C12.9684 9.97394 7.97394 14.9684 5.25327 21.1849Z" fill="white"/>
</g>
<defs>
<clipPath id="clip0_133_620">
<rect width="60" height="60" fill="white"/>
</clipPath>
</defs>
</svg>
