<svg width="60" height="60" viewBox="0 0 60 60" fill="none" xmlns="http://www.w3.org/2000/svg">
<path d="M46.9999 49L51.9999 54" stroke="white" stroke-width="6" stroke-linecap="round"/>
<path d="M13 49L8 54" stroke="white" stroke-width="6" stroke-linecap="round"/>
<path fill-rule="evenodd" clip-rule="evenodd" d="M54.9999 32C54.9999 45.8071 43.8071 57 29.9999 57C16.1928 57 4.99994 45.8071 4.99994 32C4.99994 18.1929 16.1928 7.00001 29.9999 7.00001C43.8071 7.00001 54.9999 18.1929 54.9999 32ZM49.9999 32C49.9999 43.0457 41.0456 52 29.9999 52C18.9542 52 9.99994 43.0457 9.99994 32C9.99994 20.9543 18.9542 12 29.9999 12C41.0456 12 49.9999 20.9543 49.9999 32Z" fill="white"/>
<path fill-rule="evenodd" clip-rule="evenodd" d="M54.7467 21.1848C57.3191 19.3754 59 16.384 59 13C59 7.47714 54.5228 2.99999 49 2.99999C45.616 2.99999 42.6246 4.68086 40.8151 7.25324C47.0316 9.9739 52.0261 14.9683 54.7467 21.1848Z" fill="white"/>
<path fill-rule="evenodd" clip-rule="evenodd" d="M5.25327 21.1849C2.68088 19.3754 1 16.384 1 13C1 7.47715 5.47715 3 11 3C14.384 3 17.3754 4.68088 19.1849 7.25328C12.9684 9.97394 7.97394 14.9684 5.25327 21.1849Z" fill="white"/>
</svg>
